<?xml version="1.0" standalone="no"?>
<!DOCTYPE svg PUBLIC "-//W3C//DTD SVG 20010904//EN"
 "http://www.w3.org/TR/2001/REC-SVG-20010904/DTD/svg10.dtd">
<svg version="1.0" xmlns="http://www.w3.org/2000/svg"
 width="512.000000pt" height="512.000000pt" viewBox="0 0 512.000000 512.000000"
 preserveAspectRatio="xMidYMid meet">

<g transform="translate(0.000000,512.000000) scale(0.100000,-0.100000)"
fill="#000000" stroke="none">
<path d="M1347 4169 c-57 -13 -134 -56 -183 -101 -56 -52 -111 -160 -120 -238
l-6 -58 -58 -21 c-104 -38 -198 -128 -235 -224 -16 -41 -20 -45 -73 -60 -112
-31 -227 -143 -263 -255 -7 -20 -14 -116 -16 -214 l-5 -178 -91 0 c-107 0
-159 -19 -220 -78 -42 -41 -77 -123 -77 -182 0 -59 35 -141 77 -182 61 -59
113 -78 220 -78 l91 0 5 -177 c2 -99 9 -195 16 -215 36 -112 151 -224 263
-255 53 -15 57 -19 73 -60 37 -96 131 -186 235 -224 l58 -21 6 -58 c9 -79 63
-186 122 -240 233 -215 605 -92 664 220 6 29 10 217 10 427 l0 374 72 34 72
35 576 0 576 0 72 -35 72 -34 0 -374 c0 -210 4 -398 10 -427 25 -130 107 -236
228 -293 61 -29 76 -32 162 -32 86 0 101 3 162 32 37 17 87 50 112 73 59 54
113 161 122 240 l6 58 58 21 c104 38 198 128 235 224 16 41 20 45 73 60 112
31 227 143 263 255 7 20 14 116 16 215 l5 177 91 0 c107 0 159 19 220 78 42
41 77 123 77 182 0 59 -35 141 -77 182 -61 59 -113 78 -220 78 l-91 0 -5 178
c-2 98 -9 194 -16 214 -36 112 -151 224 -263 255 -53 15 -57 19 -73 60 -37 96
-131 186 -235 224 l-58 21 -6 58 c-9 79 -63 186 -122 240 -25 23 -75 56 -112
73 -61 29 -76 32 -162 32 -86 0 -101 -3 -162 -32 -121 -57 -203 -163 -228
-293 -6 -29 -10 -217 -10 -427 l0 -374 -72 -34 -72 -35 -576 0 -576 0 -72 35
-72 34 0 374 c0 210 -4 398 -10 427 -43 225 -263 371 -483 319z m538 -1609 l0
-303 -22 -8 -23 -8 0 319 0 319 23 -8 22 -8 0 -303z m1395 0 l0 -319 -22 8
-23 8 -3 302 -2 302 22 9 c13 5 24 9 26 9 1 1 2 -143 2 -319z m-200 0 l0 -270
-520 0 -520 0 0 270 0 270 520 0 520 0 0 -270z m-2690 0 l0 -110 -77 0 c-94 0
-135 20 -153 74 -16 49 2 101 44 127 23 14 50 19 109 19 l77 0 0 -110z m4526
91 c42 -26 60 -78 44 -127 -18 -54 -59 -74 -152 -74 l-78 0 0 110 0 110 78 0
c58 0 85 -5 108 -19z"/>
</g>
</svg>
